<svg width="30" height="30" viewBox="0 0 30 30" fill="none" xmlns="http://www.w3.org/2000/svg">
<path d="M21.1416 21.25C19.807 21.25 18.725 22.3693 18.725 23.75C18.725 25.1307 19.807 26.25 21.1416 26.25C22.4763 26.25 23.5583 25.1307 23.5583 23.75C23.5583 22.3693 22.4763 21.25 21.1416 21.25ZM21.1416 21.25H11.8302C11.273 21.25 10.994 21.25 10.7646 21.1475C10.5623 21.057 10.3867 20.9114 10.2588 20.7257C10.1155 20.5175 10.0578 20.2391 9.94371 19.6882L6.96969 5.33081C6.85291 4.76704 6.79373 4.48547 6.64872 4.2749C6.52083 4.08919 6.34532 3.94302 6.14298 3.85256C5.91357 3.75 5.63605 3.75 5.07871 3.75H4.22498M7.84998 7.5H23.4051C24.2773 7.5 24.7129 7.5 25.0056 7.68795C25.262 7.85258 25.4497 8.11077 25.5316 8.41125C25.625 8.75429 25.505 9.18745 25.2632 10.0543L23.5902 16.0543C23.4456 16.5726 23.3733 16.8313 23.2267 17.0236C23.0973 17.1934 22.9266 17.3262 22.7331 17.4078C22.5145 17.5 22.2547 17.5 21.7363 17.5H9.94096M10.2666 26.25C8.93195 26.25 7.84998 25.1307 7.84998 23.75C7.84998 22.3693 8.93195 21.25 10.2666 21.25C11.6013 21.25 12.6833 22.3693 12.6833 23.75C12.6833 25.1307 11.6013 26.25 10.2666 26.25Z" stroke="#212A31" stroke-width="2" stroke-linecap="round" stroke-linejoin="round"/>
</svg>
